<?xml version="1.0" encoding="UTF-8" standalone="no"?>
<svg
   width="29"
   height="29"
   x="3.5"
   y="3"
   viewBox="0 0 24 24"
   version="1.1"
   id="svg12"
   sodipodi:docname="air_filter.svg"
   inkscape:version="1.1.2 (0a00cf5339, 2022-02-04, custom)"
   xmlns:inkscape="http://www.inkscape.org/namespaces/inkscape"
   xmlns:sodipodi="http://sodipodi.sourceforge.net/DTD/sodipodi-0.dtd"
   xmlns="http://www.w3.org/2000/svg"
   xmlns:svg="http://www.w3.org/2000/svg">
  <defs
     id="defs16" />
  <sodipodi:namedview
     id="namedview14"
     pagecolor="#ffffff"
     bordercolor="#666666"
     borderopacity="1.0"
     inkscape:pageshadow="2"
     inkscape:pageopacity="0.0"
     inkscape:pagecheckerboard="0"
     showgrid="false"
     inkscape:zoom="20.603629"
     inkscape:cx="7.7170871"
     inkscape:cy="13.78398"
     inkscape:window-width="1920"
     inkscape:window-height="1025"
     inkscape:window-x="0"
     inkscape:window-y="24"
     inkscape:window-maximized="1"
     inkscape:current-layer="svg12" />
  <g
     fill="#000000"
     opacity="1"
     id="g10"
     transform="matrix(0.92041417,0,0,0.92041417,3.7241379,3.7162725)">
    <circle
       cx="0.89999998"
       cy="7"
       r="0.89999998"
       id="circle2" />
    <circle
       cx="0.89999998"
       cy="10"
       r="0.89999998"
       id="circle4" />
    <path
       d="m 17.74,11.66 a 0.76,0.76 0 0 0 -1,-0.17 4.94,4.94 0 0 1 -2.79,1 v -1.44 a 6.5,6.5 0 0 0 3.66,-1.34 0.76,0.76 0 0 0 0.17,-1.05 0.75,0.75 0 0 0 -1,-0.17 5,5 0 0 1 -2.79,1 V 8.05 a 6.45,6.45 0 0 0 3.65,-1.34 0.75,0.75 0 1 0 -0.87,-1.22 5,5 0 0 1 -2.78,1 V 1.9 a 2,2 0 0 0 -2,-1.9 l -6,1 a 2,2 0 0 0 -2,1.89 V 5.1 a 0.9,0.9 0 1 0 0,1.8 v 1.2 a 0.9,0.9 0 1 0 0,1.8 v 1.2 a 0.9,0.9 0 1 0 0,1.8 v 3.2 a 2,2 0 0 0 2,1.9 l 6,-0.95 a 2,2 0 0 0 2,-1.89 v -1.11 a 6.41,6.41 0 0 0 3.66,-1.34 0.75,0.75 0 0 0 0.09,-1.05 z M 5.7,16.2 V 2.76 l 6.4,-1 V 6 L 11.91,5.9 A 5.26,5.26 0 0 0 9.8,5.15 0.75,0.75 0 1 0 9.62,6.63 4.11,4.11 0 0 1 11.18,7.24 9.85,9.85 0 0 0 12.1,7.7 V 9 L 11.92,8.9 A 5.32,5.32 0 0 0 9.81,8.12 0.75,0.75 0 1 0 9.62,9.6 a 4,4 0 0 1 1.56,0.61 9.85,9.85 0 0 0 0.92,0.46 V 12 l -0.18,-0.1 a 5.26,5.26 0 0 0 -2.11,-0.78 0.75,0.75 0 1 0 -0.18,1.48 4.11,4.11 0 0 1 1.56,0.61 8.55,8.55 0 0 0 0.91,0.46 v 1.54 z"
       id="path6" />
    <circle
       cx="0.89999998"
       cy="13"
       r="0.89999998"
       id="circle8" />
  </g>
</svg>
