<?xml version="1.0" encoding="UTF-8" standalone="no"?>
<svg
   version="1.0"
   width="1280pt"
   height="1280pt"
   viewBox="0 0 1280 1280"
   preserveAspectRatio="xMidYMid"
   id="svg18"
   sodipodi:docname="biological_hazard_symbol.svg"
   inkscape:version="1.2.2 (b0a8486541, 2022-12-01)"
   xmlns:inkscape="http://www.inkscape.org/namespaces/inkscape"
   xmlns:sodipodi="http://sodipodi.sourceforge.net/DTD/sodipodi-0.dtd"
   xmlns="http://www.w3.org/2000/svg"
   xmlns:svg="http://www.w3.org/2000/svg">
  <defs
     id="defs22" />
  <sodipodi:namedview
     id="namedview20"
     pagecolor="#ffffff"
     bordercolor="#999999"
     borderopacity="1"
     inkscape:showpageshadow="0"
     inkscape:pageopacity="0"
     inkscape:pagecheckerboard="0"
     inkscape:deskcolor="#d1d1d1"
     inkscape:document-units="pt"
     showgrid="false"
     inkscape:zoom="0.50383782"
     inkscape:cx="1484.6047"
     inkscape:cy="854.44162"
     inkscape:window-width="1920"
     inkscape:window-height="1052"
     inkscape:window-x="1920"
     inkscape:window-y="0"
     inkscape:window-maximized="1"
     inkscape:current-layer="svg18" />
  <metadata
     id="metadata2">
Created by potrace 1.15, written by Peter Selinger 2001-2017
</metadata>
  <g
     transform="matrix(0.07389145,0,0,-0.07389145,167.08712,1084.49)"
     fill="#000000"
     stroke="none"
     id="g16">
    <path
       d="m 6790,12027 c 3,-2 61,-17 129,-32 578,-127 1130,-438 1499,-845 378,-416 604,-901 689,-1475 13,-90 17,-183 17,-370 0,-187 -4,-280 -17,-370 -92,-624 -359,-1155 -785,-1567 -432,-416 -959,-663 -1655,-776 l -108,-17 1,-270 c 0,-148 4,-272 8,-275 4,-4 34,-14 67,-24 93,-28 246,-111 321,-174 124,-104 216,-249 255,-399 28,-109 28,-269 0,-387 -12,-49 -20,-90 -19,-91 2,-1 110,-63 242,-139 234,-135 239,-137 253,-116 61,88 221,269 343,390 151,151 308,279 470,385 628,412 1355,539 2079,364 330,-80 678,-239 951,-435 609,-435 1001,-1067 1115,-1794 26,-163 31,-541 10,-715 -25,-212 -76,-446 -140,-640 -5,-17 -5,-17 4,-4 20,31 100,261 140,402 173,612 185,1218 35,1812 -296,1174 -1184,2128 -2357,2534 -143,49 -424,123 -518,136 -76,11 -76,12 -36,116 258,669 283,1437 71,2176 -167,581 -465,1097 -884,1527 -472,485 -1028,805 -1703,981 -161,42 -491,106 -477,92 z"
       id="path4" />
    <path
       d="m 5753,11974 c -620,-112 -1141,-344 -1618,-722 -148,-117 -411,-380 -529,-527 -336,-422 -570,-902 -696,-1430 -62,-259 -88,-464 -97,-750 -12,-447 50,-872 188,-1279 22,-65 38,-120 36,-122 -2,-3 -46,-11 -98,-19 C 1789,6943 755,6110 281,4982 -35,4232 -84,3394 141,2598 c 42,-149 145,-447 160,-463 5,-5 -5,31 -21,80 -58,169 -107,386 -137,595 -26,192 -24,578 6,769 44,289 125,546 252,800 193,389 458,706 804,966 379,284 785,454 1271,532 157,25 583,25 744,0 487,-76 917,-267 1317,-585 131,-104 369,-341 478,-476 44,-54 89,-110 101,-124 l 21,-26 237,140 c 178,104 235,143 230,154 -41,105 -44,390 -4,515 86,270 297,468 573,536 l 47,11 v 279 278 l -32,5 c -18,3 -91,15 -161,27 -442,71 -854,229 -1199,458 -304,202 -575,479 -763,777 -624,993 -535,2311 216,3210 157,188 415,411 624,541 281,175 607,307 935,378 138,30 81,30 -87,-1 z"
       id="path6" />
    <path
       d="m 6230,8599 c -518,-26 -1046,-180 -1495,-435 -90,-52 -355,-226 -355,-234 0,-3 137,-142 304,-309 l 304,-304 98,66 c 290,193 635,310 1021,348 148,15 489,6 638,-16 164,-24 323,-61 488,-116 149,-48 386,-156 487,-220 30,-19 60,-38 66,-42 11,-6 579,576 579,593 0,5 -29,31 -65,57 -579,437 -1305,652 -2070,612 z"
       id="path8" />
    <path
       d="m 3020,5507 c -17,-106 -25,-532 -11,-670 75,-768 439,-1504 1017,-2056 148,-142 291,-255 483,-382 188,-125 508,-291 520,-270 4,7 47,155 94,329 48,174 98,356 111,404 l 24,88 -109,54 c -204,102 -347,205 -523,376 -196,191 -344,390 -472,634 -207,397 -314,806 -316,1208 v 157 l -392,96 c -215,53 -396,98 -402,100 -8,2 -16,-23 -24,-68 z"
       id="path10" />
    <path
       d="m 9450,5489 c -162,-43 -347,-92 -410,-109 -63,-17 -115,-32 -116,-33 -1,-1 2,-47 8,-102 10,-115 3,-296 -18,-440 -76,-517 -345,-1029 -758,-1440 -178,-177 -354,-312 -551,-420 -38,-21 -71,-39 -72,-39 -3,-2 226,-789 231,-793 6,-6 176,67 275,117 479,241 930,660 1228,1138 231,371 395,803 467,1232 40,232 49,387 43,665 -6,239 -12,306 -26,304 -3,-1 -139,-37 -301,-80 z"
       id="path12" />
    <path
       d="m 6951,4619 c -262,-243 -604,-311 -898,-179 -78,36 -140,77 -227,154 l -69,60 -41,-23 c -22,-13 -130,-75 -238,-138 l -197,-114 21,-52 C 5548,3712 5616,3165 5514,2614 5248,1162 3780,180 2315,475 c -233,47 -418,109 -632,214 -315,154 -550,326 -823,600 -74,75 -128,127 -119,116 244,-309 534,-587 817,-784 913,-636 2076,-791 3162,-423 419,142 825,370 1170,656 113,94 333,309 422,412 l 71,83 66,-82 C 6730,915 7111,610 7530,400 8057,136 8592,9 9176,9 c 593,1 1075,113 1599,371 450,223 837,529 1193,945 112,131 162,200 72,100 -269,-300 -588,-545 -925,-710 -194,-96 -309,-140 -492,-190 -638,-174 -1321,-102 -1927,202 -646,324 -1146,898 -1361,1560 -215,660 -168,1358 139,2094 6,13 -37,41 -211,139 -120,68 -227,129 -238,136 -18,11 -26,7 -74,-37 z"
       id="path14" />
  </g>
</svg>
