<?xml version="1.0" encoding="utf-8"?>
<!-- Generator: Adobe Illustrator 24.1.1, SVG Export Plug-In . SVG Version: 6.00 Build 0)  -->
<svg version="1.1" id="Layer_1" xmlns="http://www.w3.org/2000/svg" xmlns:xlink="http://www.w3.org/1999/xlink" x="0px" y="0px"
	 viewBox="0 0 512 512" style="enable-background:new 0 0 512 512;" xml:space="preserve">
<style type="text/css">
	.st0{fill-rule:evenodd;clip-rule:evenodd;}
</style>
<g>
	<path class="st0" d="M51.2,440.2V218.3h34.1v221.8c0,9.4,7.6,17.1,17.1,17.1h307.2c9.4,0,17.1-7.6,17.1-17.1V218.3h34.1v221.8
		c0,28.3-22.9,51.2-51.2,51.2H102.4C74.1,491.4,51.2,468.4,51.2,440.2z M426.7,64.7v119.5l-68.3-68.3V64.7c0-9.4,7.6-17.1,17.1-17.1
		h34.1C419,47.7,426.7,55.3,426.7,64.7z"/>
	<path class="st0" d="M231.9,30.6c13.3-13.3,34.9-13.3,48.3,0L507,257.4c6.7,6.7,6.7,17.5,0,24.2c-6.7,6.7-17.5,6.7-24.2,0L256,54.8
		L29.2,281.6c-6.7,6.7-17.5,6.7-24.2,0c-6.7-6.7-6.7-17.5,0-24.2L231.9,30.6z"/>
</g>
</svg>
