<?xml version="1.0" encoding="UTF-8" standalone="no"?>
<!-- Created with Inkscape (http://www.inkscape.org/) -->

<svg
   width="512"
   height="512"
   viewBox="0 0 135.46667 135.46667"
   version="1.1"
   id="svg5"
   inkscape:version="1.1.2 (0a00cf5339, 2022-02-04, custom)"
   sodipodi:docname="house_thermometer.svg"
   xmlns:inkscape="http://www.inkscape.org/namespaces/inkscape"
   xmlns:sodipodi="http://sodipodi.sourceforge.net/DTD/sodipodi-0.dtd"
   xmlns="http://www.w3.org/2000/svg"
   xmlns:svg="http://www.w3.org/2000/svg">
  <sodipodi:namedview
     id="namedview7"
     pagecolor="#ffffff"
     bordercolor="#666666"
     borderopacity="1.0"
     inkscape:pageshadow="2"
     inkscape:pageopacity="0.0"
     inkscape:pagecheckerboard="0"
     inkscape:document-units="px"
     showgrid="false"
     units="px"
     height="1200px"
     inkscape:zoom="0.75277076"
     inkscape:cx="302.88105"
     inkscape:cy="474.24796"
     inkscape:window-width="1920"
     inkscape:window-height="1025"
     inkscape:window-x="0"
     inkscape:window-y="24"
     inkscape:window-maximized="1"
     inkscape:current-layer="layer1" />
  <defs
     id="defs2" />
  <g
     inkscape:label="Layer 1"
     inkscape:groupmode="layer"
     id="layer1">
    <path
       d="m 52.11762,93.970965 c 0,-2.60768 0.613624,-5.031309 1.810071,-7.301556 1.196495,-2.270365 2.883843,-4.141725 5.062075,-5.645047 V 50.590653 c 0,-2.454376 0.828368,-4.540593 2.515691,-6.227943 1.687359,-1.687352 3.773537,-2.577055 6.227878,-2.577055 2.485022,0 4.571199,0.859219 6.258559,2.54645 1.687358,1.717955 2.546372,3.773447 2.546372,6.227821 v 30.43381 c 2.178221,1.503223 3.834899,3.405308 5.031393,5.644948 1.196483,2.239621 1.779391,4.693876 1.779391,7.301655 0,2.822495 -0.705574,5.460877 -2.08618,7.853801 -1.380568,2.39305 -3.282684,4.29517 -5.675661,5.6757 -2.39298,1.38054 -5.000703,2.08623 -7.853874,2.08623 -2.822489,0 -5.430214,-0.70615 -7.823193,-2.08623 -2.392977,-1.38053 -4.295093,-3.28265 -5.706331,-5.6757 -1.411252,-2.392924 -2.086191,-5.000701 -2.086191,-7.823175 z m 5.399545,0 c 0,2.853199 1.012385,5.307451 3.006554,7.332345 1.994146,2.02477 4.417807,3.03728 7.240298,3.03728 2.853161,0 5.307499,-1.01227 7.363008,-3.06801 2.05551,-2.055494 3.098598,-4.479141 3.098598,-7.27089 0,-1.902087 -0.490828,-3.681513 -1.472601,-5.307515 -0.981774,-1.626001 -2.331616,-2.883863 -4.049655,-3.773567 l -0.85898,-0.429027 C 71.537575,84.368676 71.384171,84.062553 71.384171,83.602219 V 50.591475 c 0,-0.98214 -0.337424,-1.810151 -1.043112,-2.48512 -0.705573,-0.644685 -1.564633,-0.98212 -2.607736,-0.98212 -0.981771,0 -1.840751,0.337435 -2.546371,0.98212 -0.705574,0.644705 -1.043113,1.472617 -1.043113,2.48512 V 83.54087 c 0,0.460334 -0.153404,0.767625 -0.429491,0.889361 l -0.828367,0.429027 c -1.687345,0.889362 -3.006554,2.147567 -3.957611,3.773568 -0.951047,1.626022 -1.41124,3.374703 -1.41124,5.338139 z m 2.392977,0 c 0,2.17823 0.736303,4.049611 2.239573,5.583658 1.503284,1.533947 3.282687,2.300847 5.399545,2.300847 2.116871,0 3.926941,-0.76644 5.491576,-2.300847 1.564645,-1.534047 2.331628,-3.405428 2.331628,-5.552933 0,-1.932831 -0.674962,-3.650788 -1.994158,-5.123385 -1.319197,-1.472597 -2.945204,-2.3623 -4.847309,-2.607779 V 63.690672 c 0,-0.184351 -0.09159,-0.398885 -0.30681,-0.583255 -0.214746,-0.214513 -0.42949,-0.307272 -0.674961,-0.307272 -0.276084,0 -0.49083,0.09278 -0.644236,0.245822 -0.153404,0.184351 -0.245472,0.368741 -0.245472,0.644705 v 22.518524 c -1.871432,0.275963 -3.466748,1.135163 -4.785955,2.607659 -1.319209,1.503322 -1.963479,3.190674 -1.963466,5.15411 z"
       id="path9"
       style="stroke-width:3.06791" />
    <g
       id="g23"
       transform="matrix(0.26458334,0,0,0.26458334,-4.0000006e-8,0.00987886)">
	<path
   class="st0"
   d="M 51.2,440.2 V 218.3 h 34.1 v 221.8 c 0,9.4 7.6,17.1 17.1,17.1 h 307.2 c 9.4,0 17.1,-7.6 17.1,-17.1 V 218.3 h 34.1 v 221.8 c 0,28.3 -22.9,51.2 -51.2,51.2 H 102.4 C 74.1,491.4 51.2,468.4 51.2,440.2 Z M 426.7,64.7 V 184.2 L 358.4,115.9 V 64.7 c 0,-9.4 7.6,-17.1 17.1,-17.1 h 34.1 c 9.4,0.1 17.1,7.7 17.1,17.1 z"
   id="path19" />

	<path
   class="st0"
   d="m 231.9,30.6 c 13.3,-13.3 34.9,-13.3 48.3,0 L 507,257.4 c 6.7,6.7 6.7,17.5 0,24.2 -6.7,6.7 -17.5,6.7 -24.2,0 L 256,54.8 29.2,281.6 c -6.7,6.7 -17.5,6.7 -24.2,0 -6.7,-6.7 -6.7,-17.5 0,-24.2 z"
   id="path21" />

</g>
  </g>
  <style
     type="text/css"
     id="style17">
	.st0{fill-rule:evenodd;clip-rule:evenodd;}
</style>
</svg>
