<?xml version="1.0" encoding="UTF-8" standalone="no"?>
<!-- Generator: Adobe Illustrator 24.1.1, SVG Export Plug-In . SVG Version: 6.00 Build 0)  -->

<svg
   version="1.1"
   id="Layer_1"
   x="0px"
   y="0px"
   viewBox="0 0 512 512"
   style="enable-background:new 0 0 512 512;"
   xml:space="preserve"
   sodipodi:docname="house.svg"
   inkscape:version="1.1.2 (0a00cf5339, 2022-02-04, custom)"
   xmlns:inkscape="http://www.inkscape.org/namespaces/inkscape"
   xmlns:sodipodi="http://sodipodi.sourceforge.net/DTD/sodipodi-0.dtd"
   xmlns="http://www.w3.org/2000/svg"
   xmlns:svg="http://www.w3.org/2000/svg"><defs
   id="defs13" /><sodipodi:namedview
   id="namedview11"
   pagecolor="#ffffff"
   bordercolor="#666666"
   borderopacity="1.0"
   inkscape:pageshadow="2"
   inkscape:pageopacity="0.0"
   inkscape:pagecheckerboard="0"
   showgrid="false"
   inkscape:zoom="0.58350119"
   inkscape:cx="171.37926"
   inkscape:cy="577.54809"
   inkscape:window-width="1920"
   inkscape:window-height="1025"
   inkscape:window-x="0"
   inkscape:window-y="24"
   inkscape:window-maximized="1"
   inkscape:current-layer="Layer_1" />
<style
   type="text/css"
   id="style2">
	.st0{fill-rule:evenodd;clip-rule:evenodd;}
</style>
<g
   id="g8"
   transform="matrix(0.78117371,0,0,0.78117371,56.01953,56.048697)">
	<path
   class="st0"
   d="M 51.2,440.2 V 218.3 h 34.1 v 221.8 c 0,9.4 7.6,17.1 17.1,17.1 h 307.2 c 9.4,0 17.1,-7.6 17.1,-17.1 V 218.3 h 34.1 v 221.8 c 0,28.3 -22.9,51.2 -51.2,51.2 H 102.4 C 74.1,491.4 51.2,468.4 51.2,440.2 Z M 426.7,64.7 V 184.2 L 358.4,115.9 V 64.7 c 0,-9.4 7.6,-17.1 17.1,-17.1 h 34.1 c 9.4,0.1 17.1,7.7 17.1,17.1 z"
   id="path4" />
	<path
   class="st0"
   d="m 231.9,30.6 c 13.3,-13.3 34.9,-13.3 48.3,0 L 507,257.4 c 6.7,6.7 6.7,17.5 0,24.2 -6.7,6.7 -17.5,6.7 -24.2,0 L 256,54.8 29.2,281.6 c -6.7,6.7 -17.5,6.7 -24.2,0 -6.7,-6.7 -6.7,-17.5 0,-24.2 z"
   id="path6" />
</g>
</svg>
