<?xml version="1.0" encoding="UTF-8" standalone="no"?>
<!-- Created with Inkscape (http://www.inkscape.org/) -->

<svg
   width="512"
   height="512"
   viewBox="0 0 135.46667 135.46667"
   version="1.1"
   id="svg5"
   inkscape:version="1.1.2 (0a00cf5339, 2022-02-04, custom)"
   sodipodi:docname="house_humidity.svg"
   xmlns:inkscape="http://www.inkscape.org/namespaces/inkscape"
   xmlns:sodipodi="http://sodipodi.sourceforge.net/DTD/sodipodi-0.dtd"
   xmlns="http://www.w3.org/2000/svg"
   xmlns:svg="http://www.w3.org/2000/svg">
  <sodipodi:namedview
     id="namedview7"
     pagecolor="#ffffff"
     bordercolor="#666666"
     borderopacity="1.0"
     inkscape:pageshadow="2"
     inkscape:pageopacity="0.0"
     inkscape:pagecheckerboard="0"
     inkscape:document-units="px"
     showgrid="false"
     units="px"
     height="1200px"
     inkscape:zoom="0.75277076"
     inkscape:cx="302.88105"
     inkscape:cy="474.24796"
     inkscape:window-width="1920"
     inkscape:window-height="1025"
     inkscape:window-x="0"
     inkscape:window-y="24"
     inkscape:window-maximized="1"
     inkscape:current-layer="layer1" />
  <defs
     id="defs2" />
  <g
     inkscape:label="Layer 1"
     inkscape:groupmode="layer"
     id="layer1">
    <g
       id="g23"
       transform="matrix(0.26458334,0,0,0.26458334,-4.0000006e-8,0.00987886)">
	<path
   class="st0"
   d="M 51.2,440.2 V 218.3 h 34.1 v 221.8 c 0,9.4 7.6,17.1 17.1,17.1 h 307.2 c 9.4,0 17.1,-7.6 17.1,-17.1 V 218.3 h 34.1 v 221.8 c 0,28.3 -22.9,51.2 -51.2,51.2 H 102.4 C 74.1,491.4 51.2,468.4 51.2,440.2 Z M 426.7,64.7 V 184.2 L 358.4,115.9 V 64.7 c 0,-9.4 7.6,-17.1 17.1,-17.1 h 34.1 c 9.4,0.1 17.1,7.7 17.1,17.1 z"
   id="path19" />

	<path
   class="st0"
   d="m 231.9,30.6 c 13.3,-13.3 34.9,-13.3 48.3,0 L 507,257.4 c 6.7,6.7 6.7,17.5 0,24.2 -6.7,6.7 -17.5,6.7 -24.2,0 L 256,54.8 29.2,281.6 c -6.7,6.7 -17.5,6.7 -24.2,0 -6.7,-6.7 -6.7,-17.5 0,-24.2 z"
   id="path21" />

</g>
    <path
       d="m 45.661533,83.177952 c 0,-2.621208 0.714876,-5.629643 2.144639,-9.025304 1.429752,-3.395661 3.276508,-6.701968 5.540289,-9.859333 4.646694,-6.136023 8.697654,-10.782728 12.093315,-13.910294 l 2.233982,-2.144639 c 0.74471,0.77443 1.578694,1.489329 2.472289,2.144639 1.221245,1.251033 3.097789,3.306296 5.599855,6.225377 2.502066,2.919069 4.676482,5.510501 6.463672,7.893424 2.11484,3.008435 3.931818,6.255165 5.391358,9.680603 1.459541,3.42545 2.204205,6.433884 2.204205,9.025316 0,2.978646 -0.565934,5.808373 -1.727624,8.518935 -1.161668,2.710573 -2.710574,5.063709 -4.676483,7.029618 -1.965909,1.965916 -4.319033,3.544606 -7.059395,4.706286 -2.740361,1.16168 -5.629654,1.75741 -8.667877,1.75741 -2.978646,0 -5.808362,-0.56593 -8.518935,-1.69784 -2.710573,-1.13189 -5.063709,-2.65101 -7.029618,-4.616926 -1.965909,-1.93612 -3.544591,-4.289256 -4.706259,-6.999829 -1.161679,-2.710562 -1.757413,-5.629643 -1.757413,-8.727443 z m 6.731756,-8.727442 c 0,2.472277 0.50638,4.438186 1.548895,5.927515 1.04248,1.45954 2.621219,2.204193 4.736059,2.204193 2.144628,0 3.72331,-0.744709 4.795624,-2.204193 1.042481,-1.45954 1.578683,-3.425449 1.608471,-5.927515 -0.02927,-2.502066 -0.565934,-4.467975 -1.608471,-5.957304 -1.04248,-1.459541 -2.650996,-2.204194 -4.795624,-2.204194 -2.11484,0 -3.693534,0.74471 -4.736059,2.204194 -1.042481,1.489329 -1.548895,3.455238 -1.548895,5.957304 z m 4.676483,0 c 0,-0.446826 0,-0.804264 0,-1.042481 0,-0.23833 0.02927,-0.565934 0.05967,-0.982926 0.02927,-0.416993 0.05967,-0.74471 0.148941,-0.953206 0.08894,-0.208496 0.148942,-0.476546 0.268051,-0.714876 0.119108,-0.238329 0.26805,-0.446826 0.446825,-0.536213 0.208497,-0.119109 0.416993,-0.178776 0.685043,-0.178776 0.416992,0 0.744709,0.119109 0.982926,0.357438 0.23833,0.23833 0.416993,0.625489 0.50638,1.131891 0.08894,0.536214 0.148942,0.953206 0.178776,1.340387 0.02927,0.387272 0.02927,0.893651 0.02927,1.548894 0,0.685043 0,1.191468 -0.02927,1.548906 -0.02927,0.357438 -0.08894,0.804264 -0.178776,1.340387 -0.08894,0.50638 -0.26805,0.893651 -0.50638,1.131891 -0.238329,0.238329 -0.565934,0.357438 -0.982926,0.357438 -0.26805,0 -0.476546,-0.05967 -0.685043,-0.178663 -0.208496,-0.119109 -0.357438,-0.297884 -0.446825,-0.536213 -0.119109,-0.23833 -0.208496,-0.50638 -0.268051,-0.714876 -0.05967,-0.23833 -0.119108,-0.565935 -0.148941,-0.953206 -0.02927,-0.416992 -0.05967,-0.744709 -0.05967,-0.953206 0,-0.208496 0,-0.565934 0,-1.012759 z m 1.757401,23.084539 h 3.931818 L 77.622457,65.544348 h -4.021183 z m 12.808192,-8.906162 c 0.02927,2.502066 0.595767,4.467975 1.638259,5.957293 1.042481,1.45954 2.650997,2.204205 4.765836,2.204205 2.144628,0 3.723322,-0.74471 4.765848,-2.204205 1.04248,-1.459529 1.548894,-3.455227 1.578682,-5.957293 -0.02927,-2.502066 -0.536213,-4.467975 -1.578682,-5.927515 -1.042481,-1.45954 -2.62122,-2.204205 -4.765848,-2.204205 -2.114839,0 -3.72331,0.74471 -4.765836,2.204205 -1.072314,1.45954 -1.608471,3.425449 -1.638259,5.927515 z m 4.676482,0 c 0,-0.685042 0,-1.191467 0.0304,-1.548905 0.02927,-0.357438 0.08894,-0.804264 0.178663,-1.340387 0.08894,-0.536213 0.26805,-0.893539 0.50638,-1.131891 0.238329,-0.238329 0.565934,-0.357438 0.982926,-0.357438 0.268051,0 0.50638,0.05967 0.714876,0.178776 0.208496,0.119108 0.357438,0.297883 0.476547,0.565934 0.119108,0.26805 0.208496,0.50638 0.297884,0.714876 0.08894,0.208496 0.119108,0.536213 0.148941,0.953205 l 0.02927,0.953206 v 1.012759 c 0,0.476547 0,0.833985 0,1.042481 l -0.02927,0.953206 -0.148941,0.953205 -0.297884,0.714876 -0.476547,0.565934 -0.714876,0.178776 c -0.416992,0 -0.744709,-0.119109 -0.982926,-0.357438 -0.23833,-0.23833 -0.416992,-0.625489 -0.50638,-1.131891 -0.08894,-0.536214 -0.148942,-0.982927 -0.178663,-1.340387 -0.0304,-0.357438 -0.0304,-0.893539 -0.0304,-1.578683 z"
       id="path152"
       style="stroke-width:2.97865" />
  </g>
  <style
     type="text/css"
     id="style17">
	.st0{fill-rule:evenodd;clip-rule:evenodd;}
</style>
</svg>
