<?xml version="1.0" encoding="UTF-8" standalone="no"?>
<!-- Created with Inkscape (http://www.inkscape.org/) -->

<svg
   width="512"
   height="512"
   viewBox="0 0 135.46667 135.46667"
   version="1.1"
   id="svg5"
   inkscape:version="1.1.2 (0a00cf5339, 2022-02-04, custom)"
   sodipodi:docname="house_thermometer.svg"
   xmlns:inkscape="http://www.inkscape.org/namespaces/inkscape"
   xmlns:sodipodi="http://sodipodi.sourceforge.net/DTD/sodipodi-0.dtd"
   xmlns="http://www.w3.org/2000/svg"
   xmlns:svg="http://www.w3.org/2000/svg">
  <sodipodi:namedview
     id="namedview7"
     pagecolor="#ffffff"
     bordercolor="#666666"
     borderopacity="1.0"
     inkscape:pageshadow="2"
     inkscape:pageopacity="0.0"
     inkscape:pagecheckerboard="0"
     inkscape:document-units="px"
     showgrid="false"
     units="px"
     height="1200px"
     inkscape:zoom="0.75277076"
     inkscape:cx="302.88105"
     inkscape:cy="474.24796"
     inkscape:window-width="1920"
     inkscape:window-height="1025"
     inkscape:window-x="0"
     inkscape:window-y="24"
     inkscape:window-maximized="1"
     inkscape:current-layer="layer1" />
  <defs
     id="defs2" />
  <g
     inkscape:label="Layer 1"
     inkscape:groupmode="layer"
     id="layer1">
    <path
       d="m 54.692368,88.773264 c 0,-2.17772 0.512449,-4.201737 1.511622,-6.097661 0.999215,-1.896024 2.408352,-3.458829 4.22743,-4.714281 V 52.545578 c 0,-2.049694 0.691788,-3.791932 2.100902,-5.201067 1.409143,-1.40914 3.151349,-2.152147 5.201012,-2.152147 2.075289,0 3.817492,0.717549 5.226637,2.126587 1.409143,1.434695 2.126522,3.151274 2.126522,5.200966 v 25.415829 c 1.819072,1.255367 3.202594,2.843833 4.201807,4.714197 0.999205,1.870348 1.486003,3.919943 1.486003,6.097745 0,2.357115 -0.58924,4.560477 -1.742209,6.558852 -1.152937,1.998487 -2.741429,3.586983 -4.739847,4.73989 -1.998423,1.15293 -4.17618,1.74227 -6.558914,1.74227 -2.357112,0 -4.534868,-0.58972 -6.53329,-1.74227 -1.998417,-1.152907 -3.586912,-2.741403 -4.765458,-4.73989 -1.178562,-1.998375 -1.742217,-4.176177 -1.742217,-6.533276 z m 4.509258,0 c 0,2.382758 0.845461,4.432348 2.510828,6.123375 1.665347,1.690922 3.689391,2.536498 6.046504,2.536498 2.382727,0 4.432389,-0.845372 6.14898,-2.562161 1.716595,-1.71658 2.587698,-3.740613 2.587698,-6.072053 0,-1.588467 -0.409899,-3.074498 -1.229798,-4.432402 -0.819896,-1.357904 -1.947174,-2.408365 -3.38194,-3.151374 L 71.16655,80.856858 c -0.256225,-0.102646 -0.384337,-0.358289 -0.384337,-0.742722 v -27.56787 c 0,-0.820204 -0.281788,-1.511692 -0.87112,-2.075371 -0.589239,-0.538387 -1.306657,-0.820186 -2.177769,-0.820186 -0.819895,0 -1.537244,0.281799 -2.126519,0.820186 -0.589239,0.538405 -0.871124,1.229811 -0.871124,2.075371 v 27.516636 c 0,0.384435 -0.12811,0.641059 -0.358676,0.742722 l -0.691785,0.358289 c -1.409132,0.742721 -2.510829,1.793473 -3.30507,3.151375 -0.794239,1.35792 -1.178554,2.818274 -1.178554,4.457976 z m 1.998418,0 c 0,1.819079 0.6149,3.381904 1.870309,4.663015 1.25542,1.281026 2.741431,1.921479 4.509259,1.921479 1.767836,0 3.279459,-0.640068 4.586113,-1.921479 1.306665,-1.281111 1.947186,-2.843936 1.947186,-4.637356 0,-1.614142 -0.563674,-3.048839 -1.665358,-4.278632 -1.101687,-1.229793 -2.459594,-1.972798 -4.048076,-2.177802 V 63.485642 c 0,-0.153955 -0.07649,-0.333117 -0.256223,-0.487088 -0.179339,-0.179141 -0.358676,-0.256608 -0.563671,-0.256608 -0.230564,0 -0.409903,0.07749 -0.538015,0.205293 -0.128109,0.153953 -0.204998,0.30794 -0.204998,0.538403 v 18.805629 c -1.562867,0.230461 -2.895144,0.947995 -3.996837,2.177703 -1.101695,1.255451 -1.639737,2.664588 -1.639725,4.30429 z"
       id="path9"
       style="stroke-width:2.56206" />
    <g
       id="g23"
       transform="matrix(0.20668555,0,0,0.20668555,14.821834,14.829551)">
      <path
         class="st0"
         d="M 51.2,440.2 V 218.3 h 34.1 v 221.8 c 0,9.4 7.6,17.1 17.1,17.1 h 307.2 c 9.4,0 17.1,-7.6 17.1,-17.1 V 218.3 h 34.1 v 221.8 c 0,28.3 -22.9,51.2 -51.2,51.2 H 102.4 C 74.1,491.4 51.2,468.4 51.2,440.2 Z M 426.7,64.7 V 184.2 L 358.4,115.9 V 64.7 c 0,-9.4 7.6,-17.1 17.1,-17.1 h 34.1 c 9.4,0.1 17.1,7.7 17.1,17.1 z"
         id="path19" />
      <path
         class="st0"
         d="m 231.9,30.6 c 13.3,-13.3 34.9,-13.3 48.3,0 L 507,257.4 c 6.7,6.7 6.7,17.5 0,24.2 -6.7,6.7 -17.5,6.7 -24.2,0 L 256,54.8 29.2,281.6 c -6.7,6.7 -17.5,6.7 -24.2,0 -6.7,-6.7 -6.7,-17.5 0,-24.2 z"
         id="path21" />
    </g>
  </g>
  <style
     type="text/css"
     id="style17">
	.st0{fill-rule:evenodd;clip-rule:evenodd;}
</style>
</svg>
