<?xml version="1.0" encoding="UTF-8" standalone="no"?>
<!-- Created with Inkscape (http://www.inkscape.org/) -->

<svg
   width="512"
   height="512"
   viewBox="0 0 135.46667 135.46667"
   version="1.1"
   id="svg5"
   inkscape:version="1.2.2 (b0a8486541, 2022-12-01)"
   sodipodi:docname="house_raindrops.svg"
   xml:space="preserve"
   xmlns:inkscape="http://www.inkscape.org/namespaces/inkscape"
   xmlns:sodipodi="http://sodipodi.sourceforge.net/DTD/sodipodi-0.dtd"
   xmlns="http://www.w3.org/2000/svg"
   xmlns:svg="http://www.w3.org/2000/svg"><sodipodi:namedview
     id="namedview7"
     pagecolor="#ffffff"
     bordercolor="#666666"
     borderopacity="1.0"
     inkscape:pageshadow="2"
     inkscape:pageopacity="0.0"
     inkscape:pagecheckerboard="0"
     inkscape:document-units="px"
     showgrid="false"
     units="px"
     height="1200px"
     inkscape:zoom="1.0645786"
     inkscape:cx="-99.569913"
     inkscape:cy="273.81726"
     inkscape:window-width="1920"
     inkscape:window-height="1052"
     inkscape:window-x="1920"
     inkscape:window-y="0"
     inkscape:window-maximized="1"
     inkscape:current-layer="layer1"
     inkscape:showpageshadow="0"
     inkscape:deskcolor="#d1d1d1" /><defs
     id="defs2" /><g
     inkscape:label="Layer 1"
     inkscape:groupmode="layer"
     id="layer1"><g
       id="g23"
       transform="matrix(0.20668555,0,0,0.20668555,14.821834,14.829551)"><path
         class="st0"
         d="M 51.2,440.2 V 218.3 h 34.1 v 221.8 c 0,9.4 7.6,17.1 17.1,17.1 h 307.2 c 9.4,0 17.1,-7.6 17.1,-17.1 V 218.3 h 34.1 v 221.8 c 0,28.3 -22.9,51.2 -51.2,51.2 H 102.4 C 74.1,491.4 51.2,468.4 51.2,440.2 Z M 426.7,64.7 V 184.2 L 358.4,115.9 V 64.7 c 0,-9.4 7.6,-17.1 17.1,-17.1 h 34.1 c 9.4,0.1 17.1,7.7 17.1,17.1 z"
         id="path19" /><path
         class="st0"
         d="m 231.9,30.6 c 13.3,-13.3 34.9,-13.3 48.3,0 L 507,257.4 c 6.7,6.7 6.7,17.5 0,24.2 -6.7,6.7 -17.5,6.7 -24.2,0 L 256,54.8 29.2,281.6 c -6.7,6.7 -17.5,6.7 -24.2,0 -6.7,-6.7 -6.7,-17.5 0,-24.2 z"
         id="path21" /></g><path
       d="m 47.719499,70.671003 c 0,-1.307598 0.65381,-2.967029 1.911057,-5.078979 1.2563,-2.112136 2.514311,-3.872096 3.670827,-5.229888 0.302196,-0.351611 0.703225,-0.85527 1.15747,-1.408346 0.452342,-0.553078 0.754537,-0.855274 0.803955,-0.904689 l 1.860691,2.162318 c 1.408347,1.558496 2.665026,3.319025 3.821735,5.380809 1.157467,2.061762 1.759961,3.721193 1.759961,5.07898 0,2.061582 -0.703225,3.871913 -2.162319,5.330231 -1.408349,1.45778 -3.168117,2.212686 -5.280068,2.212686 -2.061776,0 -3.872102,-0.754522 -5.330435,-2.212686 -1.457763,-1.509071 -2.212684,-3.268649 -2.212684,-5.330231 z m 15.689488,20.869024 c 0,-1.457759 0.402927,-3.117933 1.206883,-5.078984 0.803955,-1.910862 1.811276,-3.721193 3.01721,-5.330436 2.31322,-3.067586 4.47554,-5.632055 6.58768,-7.693842 0.20148,-0.152103 0.65381,-0.553076 1.30762,-1.206887 l 1.2563,1.206887 c 1.96104,1.860699 4.17373,4.425194 6.63786,7.643474 1.30761,1.710542 2.31322,3.520105 3.11775,5.430992 0.80396,1.910863 1.20688,3.570478 1.20688,5.028796 0,3.469734 -1.15746,6.336049 -3.52011,8.699633 -2.3634,2.36341 -5.28007,3.51993 -8.69963,3.51993 -3.41957,0 -6.28587,-1.20689 -8.649269,-3.5703 -2.363594,-2.363396 -3.469934,-5.280062 -3.469934,-8.649263 z M 71.05265,56.842026 c 0,-2.162315 1.65922,-5.028616 5.02861,-8.548726 l 1.25631,1.408347 c 0.956,1.106153 1.81127,2.313225 2.56467,3.721193 0.75454,1.357031 1.15747,2.5145 1.15747,3.419568 0,1.408347 -0.50366,2.514309 -1.45777,3.469742 -0.956,0.904689 -2.11195,1.40835 -3.51991,1.40835 -1.45777,0 -2.66522,-0.452345 -3.62066,-1.40835 -0.90468,-0.956001 -1.40834,-2.11195 -1.40834,-3.469742 z"
       id="path169"
       style="stroke-width:5.02866" /></g><style
     type="text/css"
     id="style17">
	.st0{fill-rule:evenodd;clip-rule:evenodd;}
</style></svg>
