<?xml version="1.0" encoding="UTF-8" standalone="no"?>
<!-- Created with Inkscape (http://www.inkscape.org/) -->

<svg
   width="512"
   height="512"
   viewBox="0 0 135.46667 135.46667"
   version="1.1"
   id="svg5"
   inkscape:version="1.1.2 (0a00cf5339, 2022-02-04, custom)"
   sodipodi:docname="house_humidity.svg"
   xmlns:inkscape="http://www.inkscape.org/namespaces/inkscape"
   xmlns:sodipodi="http://sodipodi.sourceforge.net/DTD/sodipodi-0.dtd"
   xmlns="http://www.w3.org/2000/svg"
   xmlns:svg="http://www.w3.org/2000/svg">
  <sodipodi:namedview
     id="namedview7"
     pagecolor="#ffffff"
     bordercolor="#666666"
     borderopacity="1.0"
     inkscape:pageshadow="2"
     inkscape:pageopacity="0.0"
     inkscape:pagecheckerboard="0"
     inkscape:document-units="px"
     showgrid="false"
     units="px"
     height="1200px"
     inkscape:zoom="0.75277076"
     inkscape:cx="50.480175"
     inkscape:cy="474.24796"
     inkscape:window-width="1920"
     inkscape:window-height="1025"
     inkscape:window-x="0"
     inkscape:window-y="24"
     inkscape:window-maximized="1"
     inkscape:current-layer="layer1" />
  <defs
     id="defs2" />
  <g
     inkscape:label="Layer 1"
     inkscape:groupmode="layer"
     id="layer1">
    <g
       id="g23"
       transform="matrix(0.20668555,0,0,0.20668555,14.821834,14.829551)">
      <path
         class="st0"
         d="M 51.2,440.2 V 218.3 h 34.1 v 221.8 c 0,9.4 7.6,17.1 17.1,17.1 h 307.2 c 9.4,0 17.1,-7.6 17.1,-17.1 V 218.3 h 34.1 v 221.8 c 0,28.3 -22.9,51.2 -51.2,51.2 H 102.4 C 74.1,491.4 51.2,468.4 51.2,440.2 Z M 426.7,64.7 V 184.2 L 358.4,115.9 V 64.7 c 0,-9.4 7.6,-17.1 17.1,-17.1 h 34.1 c 9.4,0.1 17.1,7.7 17.1,17.1 z"
         id="path19" />
      <path
         class="st0"
         d="m 231.9,30.6 c 13.3,-13.3 34.9,-13.3 48.3,0 L 507,257.4 c 6.7,6.7 6.7,17.5 0,24.2 -6.7,6.7 -17.5,6.7 -24.2,0 L 256,54.8 29.2,281.6 c -6.7,6.7 -17.5,6.7 -24.2,0 -6.7,-6.7 -6.7,-17.5 0,-24.2 z"
         id="path21" />
    </g>
    <path
       d="m 47.36785,80.823582 c 0,-2.418567 0.659612,-5.194428 1.978842,-8.327578 1.319222,-3.13315 3.023208,-6.183855 5.111983,-9.097133 4.28747,-5.661661 8.025261,-9.949141 11.158411,-12.834924 l 2.061278,-1.978839 c 0.687138,0.714561 1.456649,1.374192 2.281161,1.978839 1.126836,1.15432 2.858308,3.050696 5.166946,5.74411 2.308636,2.693402 4.314954,5.084498 5.963981,7.283203 1.951346,2.77586 3.627859,5.771594 4.974565,8.932221 1.346708,3.160633 2.033803,5.936494 2.033803,8.327589 0,2.748374 -0.522183,5.359342 -1.594065,7.860355 -1.071862,2.501026 -2.501027,4.672256 -4.314954,6.486182 -1.813932,1.813936 -3.985141,3.270575 -6.513653,4.342456 -2.528509,1.071877 -5.194439,1.621547 -7.997784,1.621547 -2.748377,0 -5.359335,-0.52218 -7.860358,-1.566577 C 57.31698,98.550635 55.145759,97.148946 53.331832,95.335011 51.517901,93.548582 50.061264,91.377355 48.989402,88.87633 47.917529,86.375315 47.36785,83.6819 47.36785,80.823582 Z m 6.21134,-8.052744 c 0,2.281152 0.467235,4.09508 1.429154,5.469273 0.961889,1.346706 2.418579,2.033793 4.369926,2.033793 1.978833,0 3.435471,-0.687138 4.424887,-2.033793 0.961888,-1.346705 1.456638,-3.160636 1.484124,-5.469273 -0.02702,-2.308637 -0.522183,-4.122566 -1.484124,-5.496759 -0.96189,-1.346708 -2.446054,-2.033793 -4.424887,-2.033793 -1.951347,0 -3.407996,0.687137 -4.369926,2.033793 -0.961888,1.374193 -1.429154,3.188122 -1.429154,5.496759 z m 4.314957,0 c 0,-0.412282 0,-0.742087 0,-0.961889 0,-0.219904 0.02702,-0.522183 0.05505,-0.906941 0.02702,-0.384753 0.05505,-0.687135 0.137429,-0.879513 0.08207,-0.192378 0.137426,-0.439706 0.247327,-0.659611 0.109891,-0.219904 0.247329,-0.412281 0.412283,-0.49476 0.192379,-0.109891 0.384757,-0.164955 0.632084,-0.164955 0.384755,0 0.687136,0.109902 0.906939,0.329807 0.219905,0.219904 0.384756,0.577135 0.467231,1.044387 0.08207,0.494761 0.137429,0.879516 0.164958,1.236765 0.02702,0.357332 0.02702,0.824566 0.02702,1.429151 0,0.632084 0,1.099358 -0.02702,1.429164 -0.02702,0.329807 -0.08207,0.742089 -0.164958,1.236766 -0.08207,0.467231 -0.247326,0.824565 -0.467231,1.044387 -0.219906,0.219905 -0.522184,0.329806 -0.906939,0.329806 -0.247327,0 -0.439705,-0.05505 -0.632084,-0.164852 -0.192378,-0.109891 -0.329805,-0.274855 -0.412283,-0.494758 -0.109902,-0.219906 -0.192377,-0.467234 -0.247327,-0.659611 -0.05505,-0.219906 -0.109891,-0.522183 -0.137429,-0.879515 -0.02702,-0.384757 -0.05505,-0.687138 -0.05505,-0.879517 0,-0.192378 0,-0.522184 0,-0.934466 z m 1.621538,21.29993 h 3.62786 L 76.857954,64.553191 h -3.710315 z m 11.818024,-8.21765 c 0.02702,2.308641 0.549709,4.122569 1.511608,5.496751 0.961889,1.346707 2.446056,2.033811 4.397402,2.033811 1.978831,0 3.43548,-0.687145 4.397412,-2.033811 0.961889,-1.346695 1.429152,-3.18811 1.456639,-5.496751 -0.02702,-2.308636 -0.494761,-4.122565 -1.456639,-5.46927 -0.96189,-1.346708 -2.418581,-2.033805 -4.397412,-2.033805 -1.951346,0 -3.43547,0.68714 -4.397402,2.033805 -0.989414,1.346705 -1.484122,3.160634 -1.511608,5.46927 z m 4.314953,0 c 0,-0.632081 0,-1.099355 0.02806,-1.429163 0.02702,-0.329802 0.08207,-0.742088 0.164852,-1.236764 0.08207,-0.494759 0.247327,-0.824461 0.467234,-1.044387 0.219905,-0.219903 0.522183,-0.329805 0.906938,-0.329805 0.247328,0 0.467233,0.05505 0.659611,0.164954 0.192377,0.109913 0.329806,0.274856 0.439707,0.522183 0.109891,0.247329 0.192376,0.467233 0.274854,0.659612 0.08207,0.192377 0.109891,0.494759 0.137428,0.879515 l 0.02702,0.879514 v 0.934466 c 0,0.439705 0,0.769513 0,0.961889 l -0.02702,0.879518 -0.137428,0.879515 -0.274854,0.65961 -0.439707,0.522183 -0.659611,0.164955 c -0.384755,0 -0.687139,-0.109891 -0.906938,-0.329806 -0.219907,-0.219905 -0.384756,-0.577133 -0.467234,-1.044387 -0.08207,-0.49476 -0.137427,-0.906939 -0.164852,-1.236766 -0.02806,-0.329805 -0.02806,-0.824459 -0.02806,-1.456638 z"
       id="path152"
       style="stroke-width:2.74837" />
  </g>
  <style
     type="text/css"
     id="style17">
	.st0{fill-rule:evenodd;clip-rule:evenodd;}
</style>
</svg>
