<?xml version="1.0" encoding="UTF-8" standalone="no"?>
<svg
   height="48"
   viewBox="0 0 48 48"
   width="48"
   version="1.1"
   id="svg6"
   sodipodi:docname="visibility_icon.svg"
   inkscape:version="1.1.2 (0a00cf5339, 2022-02-04, custom)"
   xmlns:inkscape="http://www.inkscape.org/namespaces/inkscape"
   xmlns:sodipodi="http://sodipodi.sourceforge.net/DTD/sodipodi-0.dtd"
   xmlns="http://www.w3.org/2000/svg"
   xmlns:svg="http://www.w3.org/2000/svg">
  <defs
     id="defs10" />
  <sodipodi:namedview
     id="namedview8"
     pagecolor="#ffffff"
     bordercolor="#666666"
     borderopacity="1.0"
     inkscape:pageshadow="2"
     inkscape:pageopacity="0.0"
     inkscape:pagecheckerboard="0"
     showgrid="false"
     inkscape:zoom="6.2240128"
     inkscape:cx="10.443423"
     inkscape:cy="36.953651"
     inkscape:window-width="1920"
     inkscape:window-height="1025"
     inkscape:window-x="0"
     inkscape:window-y="24"
     inkscape:window-maximized="1"
     inkscape:current-layer="svg6" />
  <path
     d="M0 0h48v48h-48z"
     fill="none"
     id="path2" />
  <path
     d="m 24,12.068182 c -7.954545,0 -14.7477273,4.947727 -17.5,11.931818 2.7522727,6.984091 9.545455,11.931818 17.5,11.931818 7.9625,0 14.747727,-4.947727 17.5,-11.931817 C 38.747727,17.015909 31.9625,12.068182 24,12.068182 Z m 0,19.886364 c -4.390909,0 -7.954545,-3.563637 -7.954545,-7.954546 0,-4.390909 3.563636,-7.954545 7.954545,-7.954545 4.390909,0 7.954545,3.563636 7.954545,7.954545 0,4.390909 -3.563636,7.954546 -7.954545,7.954546 z m 0,-12.727273 c -2.632955,0 -4.772727,2.139773 -4.772727,4.772727 0,2.632955 2.139772,4.772727 4.772727,4.772727 2.632955,0 4.772727,-2.139772 4.772727,-4.772727 0,-2.632954 -2.139772,-4.772727 -4.772727,-4.772727 z"
     id="path4"
     style="stroke-width:0.795455" />
</svg>
