<?xml version="1.0" encoding="UTF-8" standalone="no"?>
<!-- Generator: Adobe Illustrator 22.0.1, SVG Export Plug-In . SVG Version: 6.00 Build 0)  -->

<svg
   version="1.1"
   id="Layer_1"
   x="0px"
   y="0px"
   viewBox="0 0 30 30"
   style="enable-background:new 0 0 30 30;"
   xml:space="preserve"
   sodipodi:docname="wi-raindrops.svg"
   inkscape:version="1.2.2 (b0a8486541, 2022-12-01)"
   xmlns:inkscape="http://www.inkscape.org/namespaces/inkscape"
   xmlns:sodipodi="http://sodipodi.sourceforge.net/DTD/sodipodi-0.dtd"
   xmlns="http://www.w3.org/2000/svg"
   xmlns:svg="http://www.w3.org/2000/svg"><defs
   id="defs7" /><sodipodi:namedview
   id="namedview5"
   pagecolor="#ffffff"
   bordercolor="#999999"
   borderopacity="1"
   inkscape:showpageshadow="0"
   inkscape:pageopacity="0"
   inkscape:pagecheckerboard="0"
   inkscape:deskcolor="#d1d1d1"
   showgrid="false"
   inkscape:zoom="10.076272"
   inkscape:cx="-8.3364168"
   inkscape:cy="7.6913369"
   inkscape:window-width="1920"
   inkscape:window-height="1052"
   inkscape:window-x="1920"
   inkscape:window-y="0"
   inkscape:window-maximized="1"
   inkscape:current-layer="Layer_1" />
<path
   d="m 7.3892489,12.963455 c 0,-0.497185 0.248592,-1.128227 0.7266546,-1.931372 C 8.5939661,10.228939 9.0720278,9.559651 9.5118451,9.0433444 9.6265798,8.9094871 9.7795598,8.7182618 9.9516627,8.5079149 10.123765,8.2975671 10.238499,8.1828324 10.257622,8.1637097 l 0.707531,0.8222668 c 0.53543,0.5927973 1.013492,1.2620855 1.45331,2.0461065 0.439817,0.784023 0.669287,1.415064 0.669287,1.931372 0,0.784022 -0.267715,1.472433 -0.822267,2.026984 -0.53543,0.554553 -1.204717,0.84139 -2.007861,0.84139 -0.7840222,0 -1.4724316,-0.286837 -2.0269836,-0.84139 C 7.6760862,14.416765 7.3892489,13.747477 7.3892489,12.963455 Z m 5.9662151,7.935834 c 0,-0.554553 0.15298,-1.185595 0.458941,-1.931373 0.305959,-0.726655 0.688409,-1.415064 1.147349,-2.026983 0.879635,-1.166472 1.701901,-2.141718 2.505047,-2.925741 0.07648,-0.05737 0.248592,-0.210347 0.497184,-0.458939 l 0.478062,0.458939 c 0.745778,0.707533 1.587167,1.682779 2.524169,2.906618 0.497185,0.650165 0.879635,1.338574 1.185594,2.06523 0.30596,0.726653 0.458941,1.357695 0.458941,1.912248 0,1.319451 -0.439818,2.409435 -1.338576,3.30819 -0.898755,0.898757 -2.007861,1.338575 -3.30819,1.338575 -1.30033,0 -2.390311,-0.45894 -3.289068,-1.357696 -0.898757,-0.898758 -1.319453,-2.007862 -1.319453,-3.289068 z M 16.262083,7.7047698 c 0,-0.8222669 0.631043,-1.9122487 1.91225,-3.250823 l 0.478062,0.5354297 c 0.363327,0.4206948 0.68841,0.8796345 0.975247,1.4150643 0.286837,0.5163075 0.439817,0.9561248 0.439817,1.300329 0,0.5354305 -0.191225,0.9561251 -0.554552,1.319452 -0.363328,0.3442052 -0.803145,0.5354292 -1.338574,0.5354292 -0.554553,0 -1.013492,-0.1721014 -1.376819,-0.5354292 -0.344205,-0.3633269 -0.535431,-0.8031442 -0.535431,-1.319452 z"
   id="path2"
   style="stroke-width:1.91226" />
</svg>
