<?xml version="1.0" encoding="UTF-8" standalone="no"?>
<!-- Generator: Adobe Illustrator 22.0.1, SVG Export Plug-In . SVG Version: 6.00 Build 0)  -->

<svg
   version="1.1"
   id="Layer_1"
   x="0px"
   y="0px"
   viewBox="0 0 30 30"
   style="enable-background:new 0 0 30 30;"
   xml:space="preserve"
   sodipodi:docname="wi-wind-.svg"
   inkscape:version="1.2 (dc2aedaf03, 2022-05-15)"
   xmlns:inkscape="http://www.inkscape.org/namespaces/inkscape"
   xmlns:sodipodi="http://sodipodi.sourceforge.net/DTD/sodipodi-0.dtd"
   xmlns="http://www.w3.org/2000/svg"
   xmlns:svg="http://www.w3.org/2000/svg"><defs
   id="defs7" /><sodipodi:namedview
   id="namedview5"
   pagecolor="#ffffff"
   bordercolor="#666666"
   borderopacity="1.0"
   inkscape:showpageshadow="2"
   inkscape:pageopacity="0.0"
   inkscape:pagecheckerboard="0"
   inkscape:deskcolor="#d1d1d1"
   showgrid="false"
   inkscape:zoom="28.466667"
   inkscape:cx="15.017564"
   inkscape:cy="15"
   inkscape:window-width="1920"
   inkscape:window-height="1029"
   inkscape:window-x="0"
   inkscape:window-y="23"
   inkscape:window-maximized="1"
   inkscape:current-layer="Layer_1" />
<path
	 transform="rotate(342, 15, 15)"
   d="M3.74,14.5c0-2.04,0.51-3.93,1.52-5.66s2.38-3.1,4.11-4.11s3.61-1.51,5.64-1.51c1.52,0,2.98,0.3,4.37,0.89  s2.58,1.4,3.59,2.4s1.81,2.2,2.4,3.6s0.89,2.85,0.89,4.39c0,1.52-0.3,2.98-0.89,4.37s-1.4,2.59-2.4,3.59s-2.2,1.8-3.59,2.39  s-2.84,0.89-4.37,0.89c-1.53,0-3-0.3-4.39-0.89s-2.59-1.4-3.6-2.4s-1.8-2.2-2.4-3.58S3.74,16.03,3.74,14.5z M6.22,14.5  c0,2.37,0.86,4.43,2.59,6.18c1.73,1.73,3.79,2.59,6.2,2.59c1.58,0,3.05-0.39,4.39-1.18s2.42-1.85,3.21-3.2s1.19-2.81,1.19-4.39  s-0.4-3.05-1.19-4.4s-1.86-2.42-3.21-3.21s-2.81-1.18-4.39-1.18s-3.05,0.39-4.39,1.18S8.2,8.75,7.4,10.1S6.22,12.92,6.22,14.5z   M11.11,20.35l3.75-13.11c0.01-0.1,0.06-0.15,0.15-0.15s0.14,0.05,0.15,0.15l3.74,13.11c0.04,0.11,0.03,0.19-0.02,0.25  s-0.13,0.06-0.24,0l-3.47-1.3c-0.1-0.04-0.2-0.04-0.29,0l-3.5,1.3c-0.1,0.06-0.17,0.06-0.21,0S11.09,20.45,11.11,20.35z"
   id="path2" />
</svg>
