<svg xmlns="http://www.w3.org/2000/svg" width="32" height="32" fill="#000000" viewBox="0 0 256 256"><path d="M229.66,98.34a8,8,0,0,1-11.32,11.32L200,91.31l-18.34,18.35a8,8,0,0,1-11.32-11.32L188.69,80,170.34,61.66a8,8,0,0,1,11.32-11.32L200,68.69l18.34-18.35a8,8,0,0,1,11.32,11.32L211.31,80ZM128,192a12,12,0,1,0,12,12A12,12,0,0,0,128,192Zm44.71-33.47a76.05,76.05,0,0,0-89.42,0,8,8,0,0,0,9.42,12.94,60,60,0,0,1,70.58,0,8,8,0,1,0,9.42-12.94Zm-29.48-93.8a8,8,0,1,0,1.54-15.92C139.24,48.27,133.59,48,128,48A172.35,172.35,0,0,0,18.92,87,8,8,0,1,0,29.08,99.37,156.25,156.25,0,0,1,128,64C133.08,64,138.2,64.25,143.23,64.73ZM142.91,113a8,8,0,0,0,2.18-15.85A124.75,124.75,0,0,0,128,96a122.74,122.74,0,0,0-77,26.77A8,8,0,0,0,56,137a7.93,7.93,0,0,0,5-1.73A106.87,106.87,0,0,1,128,112,109,109,0,0,1,142.91,113Z"></path></svg>