<?xml version="1.0" encoding="UTF-8" standalone="no"?>
<!-- Generator: Adobe Illustrator 18.1.1, SVG Export Plug-In . SVG Version: 6.00 Build 0)  -->

<svg
   version="1.1"
   id="Capa_1"
   x="0px"
   y="0px"
   viewBox="0 0 612 612"
   style="enable-background:new 0 0 612 612;"
   xml:space="preserve"
   sodipodi:docname="wind-sign.svg"
   inkscape:version="1.1.2 (0a00cf5339, 2022-02-04, custom)"
   xmlns:inkscape="http://www.inkscape.org/namespaces/inkscape"
   xmlns:sodipodi="http://sodipodi.sourceforge.net/DTD/sodipodi-0.dtd"
   xmlns="http://www.w3.org/2000/svg"
   xmlns:svg="http://www.w3.org/2000/svg"><defs
   id="defs45" /><sodipodi:namedview
   id="namedview43"
   pagecolor="#ffffff"
   bordercolor="#666666"
   borderopacity="1.0"
   inkscape:pageshadow="2"
   inkscape:pageopacity="0.0"
   inkscape:pagecheckerboard="0"
   showgrid="false"
   inkscape:zoom="0.34517974"
   inkscape:cx="182.51361"
   inkscape:cy="315.77751"
   inkscape:window-width="1920"
   inkscape:window-height="1025"
   inkscape:window-x="0"
   inkscape:window-y="24"
   inkscape:window-maximized="1"
   inkscape:current-layer="Capa_1" />
<g
   id="g10"
   transform="matrix(0.89869329,0,0,0.89869329,31.000752,30.999704)">
	<g
   id="g8">
		<path
   d="m 43.411,335.593 h 437.203 c 63.387,0 114.952,-51.568 114.952,-114.952 0,-63.291 -51.417,-114.8 -114.677,-114.95 -6.232,-0.094 -46.697,0.466 -76.913,29.927 -20.244,19.737 -30.506,46.857 -30.506,80.603 0,14.901 12.078,26.98 26.98,26.98 14.901,0 26.978,-12.08 26.978,-26.98 0,-18.482 4.697,-32.516 13.955,-41.709 14.429,-14.33 36.875,-14.846 38.67,-14.864 0.252,0.008 0.22,0.004 0.56,0.004 33.631,0 60.993,27.36 60.993,60.989 0,33.631 -27.36,60.991 -60.993,60.991 H 43.411 c -14.901,0 -26.98,12.08 -26.98,26.98 0,14.901 12.079,26.981 26.98,26.981 z"
   id="path2" />
		<path
   d="m 43.411,229.908 h 208.393 c 63.383,0 114.95,-51.568 114.95,-114.952 0,-63.295 -51.415,-114.806 -114.677,-114.95 -6.306,-0.088 -46.707,0.474 -76.915,29.927 -20.242,19.739 -30.506,46.859 -30.506,80.605 0,14.901 12.078,26.982 26.98,26.982 14.902,0 26.978,-12.08 26.978,-26.982 0,-18.482 4.697,-32.516 13.955,-41.709 14.427,-14.328 36.873,-14.848 38.674,-14.866 0.252,0.008 0.218,0.004 0.56,0.004 33.629,0 60.991,27.36 60.991,60.989 0,33.631 -27.36,60.991 -60.991,60.991 H 43.411 c -14.901,0 -26.98,12.08 -26.98,26.982 0,14.902 12.079,26.979 26.98,26.979 z"
   id="path4" />
		<path
   d="M 480.614,382.093 H 43.411 c -14.901,0 -26.98,12.08 -26.98,26.98 0,14.899 12.078,26.98 26.98,26.98 h 437.203 c 33.631,0 60.993,27.36 60.993,60.989 0,33.631 -27.36,60.991 -60.993,60.991 -0.339,0 -0.308,-0.006 -0.56,0.004 -1.797,-0.018 -24.243,-0.536 -38.67,-14.864 -9.258,-9.193 -13.955,-23.227 -13.955,-41.711 0,-14.901 -12.077,-26.982 -26.978,-26.982 -14.901,0 -26.98,12.08 -26.98,26.982 0,33.748 10.262,60.868 30.506,80.605 28.999,28.277 67.407,29.935 75.994,29.933 0.361,0 0.667,-0.002 0.919,-0.006 63.26,-0.15 114.677,-51.659 114.677,-114.95 0,-63.385 -51.566,-114.951 -114.953,-114.951 z"
   id="path6" />
	</g>
</g>
<g
   id="g12">
</g>
<g
   id="g14">
</g>
<g
   id="g16">
</g>
<g
   id="g18">
</g>
<g
   id="g20">
</g>
<g
   id="g22">
</g>
<g
   id="g24">
</g>
<g
   id="g26">
</g>
<g
   id="g28">
</g>
<g
   id="g30">
</g>
<g
   id="g32">
</g>
<g
   id="g34">
</g>
<g
   id="g36">
</g>
<g
   id="g38">
</g>
<g
   id="g40">
</g>
</svg>
