<?xml version="1.0" encoding="iso-8859-1"?>
<!-- Generator: Adobe Illustrator 18.1.1, SVG Export Plug-In . SVG Version: 6.00 Build 0)  -->
<svg version="1.1" id="Capa_1" xmlns="http://www.w3.org/2000/svg" xmlns:xlink="http://www.w3.org/1999/xlink" x="0px" y="0px"
	 viewBox="0 0 612 612" style="enable-background:new 0 0 612 612;" xml:space="preserve">
<g>
	<g>
		<path d="M43.411,335.593h437.203c63.387,0,114.952-51.568,114.952-114.952c0-63.291-51.417-114.8-114.677-114.95
			c-6.232-0.094-46.697,0.466-76.913,29.927c-20.244,19.737-30.506,46.857-30.506,80.603c0,14.901,12.078,26.98,26.98,26.98
			c14.901,0,26.978-12.08,26.978-26.98c0-18.482,4.697-32.516,13.955-41.709c14.429-14.33,36.875-14.846,38.67-14.864
			c0.252,0.008,0.22,0.004,0.56,0.004c33.631,0,60.993,27.36,60.993,60.989c0,33.631-27.36,60.991-60.993,60.991H43.411
			c-14.901,0-26.98,12.08-26.98,26.98C16.431,323.513,28.51,335.593,43.411,335.593z"/>
		<path d="M43.411,229.908h208.393c63.383,0,114.95-51.568,114.95-114.952c0-63.295-51.415-114.806-114.677-114.95
			c-6.306-0.088-46.707,0.474-76.915,29.927c-20.242,19.739-30.506,46.859-30.506,80.605c0,14.901,12.078,26.982,26.98,26.982
			s26.978-12.08,26.978-26.982c0-18.482,4.697-32.516,13.955-41.709c14.427-14.328,36.873-14.848,38.674-14.866
			c0.252,0.008,0.218,0.004,0.56,0.004c33.629,0,60.991,27.36,60.991,60.989c0,33.631-27.36,60.991-60.991,60.991H43.411
			c-14.901,0-26.98,12.08-26.98,26.982S28.51,229.908,43.411,229.908z"/>
		<path d="M480.614,382.093H43.411c-14.901,0-26.98,12.08-26.98,26.98c0,14.899,12.078,26.98,26.98,26.98h437.203
			c33.631,0,60.993,27.36,60.993,60.989c0,33.631-27.36,60.991-60.993,60.991c-0.339,0-0.308-0.006-0.56,0.004
			c-1.797-0.018-24.243-0.536-38.67-14.864c-9.258-9.193-13.955-23.227-13.955-41.711c0-14.901-12.077-26.982-26.978-26.982
			c-14.901,0-26.98,12.08-26.98,26.982c0,33.748,10.262,60.868,30.506,80.605c28.999,28.277,67.407,29.935,75.994,29.933
			c0.361,0,0.667-0.002,0.919-0.006c63.26-0.15,114.677-51.659,114.677-114.95C595.567,433.659,544.001,382.093,480.614,382.093z"/>
	</g>
</g>
<g>
</g>
<g>
</g>
<g>
</g>
<g>
</g>
<g>
</g>
<g>
</g>
<g>
</g>
<g>
</g>
<g>
</g>
<g>
</g>
<g>
</g>
<g>
</g>
<g>
</g>
<g>
</g>
<g>
</g>
</svg>
